<?xml version="1.0" encoding="UTF-8"?> <svg xmlns="http://www.w3.org/2000/svg" width="140" height="69" viewBox="0 0 140 69" fill="none"> <g clip-path="url(#clip0_3_57)"> <path d="M139.94 27.854C139.94 12.47 108.612 0 69.969 0C31.326 0 0 12.471 0 27.854C0 43.237 31.328 55.708 69.971 55.708C108.614 55.708 139.94 43.238 139.94 27.854ZM128.012 27.931C128.012 41.888 101.591 51.423 69.798 51.423C38.005 51.423 11.584 41.888 11.584 27.931C11.584 13.974 38.004 2.66 69.798 2.66C101.592 2.66 128.015 13.974 128.015 27.931" fill="#EF6C00"></path> <path d="M43.0425 29.8259C43.0425 24.8799 39.4425 20.8689 34.7225 20.8689C33.7441 20.8541 32.7789 21.0954 31.9225 21.5689C31.9685 21.1379 32.0535 20.0929 32.0535 19.0429V13.7119L26.1855 17.8249C26.1855 17.8249 26.1985 27.4139 26.1985 28.8969C26.1985 29.0089 26.2155 29.8329 26.2155 30.0279C26.1883 31.1636 26.3877 32.2933 26.802 33.3511C27.2163 34.4089 27.8373 35.3734 28.6287 36.1885C29.4201 37.0035 30.366 37.6526 31.4111 38.0979C32.4562 38.5432 33.5795 38.7757 34.7155 38.7819C39.4325 38.7819 43.0355 34.7719 43.0355 29.8249M37.6055 29.5959C37.6055 31.7419 36.2125 33.4819 34.4955 33.4819C32.7785 33.4819 31.6055 31.7419 31.6055 29.5959C31.6055 27.4499 32.7865 25.7069 34.4985 25.7069C36.2105 25.7069 37.6085 27.4459 37.6085 29.5919" fill="#EF6C00"></path> <path d="M44.3477 21.4258H50.2207C50.2207 21.4258 50.3387 22.9328 50.0057 23.2258C50.4437 22.8258 51.1587 21.3398 54.5867 21.3398C54.6317 21.3848 54.5867 26.9398 54.5867 26.9398C53.9822 26.4208 53.218 26.1247 52.4217 26.1008C51.1597 26.1008 50.3567 26.6158 50.3567 28.0388V38.5258H44.3477V21.4258Z" fill="#EF6C00"></path> <path d="M55.7129 21.4258H61.6179V29.7258C61.6179 29.7258 61.2129 37.0058 64.5429 38.5258H61.8919C59.3659 38.5258 55.7129 37.0508 55.7129 29.3708V21.4258Z" fill="#EF6C00"></path> <path d="M79.2648 17.8269V21.4269H77.4648L77.5098 25.7559H79.2698V30.0959C79.2698 30.0959 78.8588 38.5269 85.7148 38.5269H88.2888C88.2888 38.5269 85.2028 36.3639 85.2028 30.0519C85.2028 25.9349 85.1578 25.7119 85.1578 25.7119H87.3838V21.4269H85.1588L85.2038 13.7559L79.2648 17.8269Z" fill="#EF6C00"></path> <path d="M103.401 28.4939C102.462 23.5939 98.3776 20.2399 94.1466 20.9699C93.4657 21.0871 92.8317 21.3942 92.3176 21.8559C94.4946 22.6559 96.2376 24.6679 97.3116 29.4399C98.3736 34.1639 99.0116 36.2189 100.026 37.3499C102.391 36.7059 104.23 32.8069 103.401 28.4939ZM88.0806 31.1359C88.9616 36.0219 93.1036 39.3889 97.3336 38.6589C97.8988 38.5969 98.4361 38.3807 98.8866 38.0339C95.8936 36.9799 95.6346 34.0339 94.5556 29.8719C93.4366 25.5549 92.2296 23.5419 91.1796 22.4779C88.8586 23.4199 87.4396 27.5779 88.0796 31.1349" fill="#EF6C00"></path> <path d="M105.669 17.8269V21.4269H103.869L103.914 25.7559H105.674V30.0959C105.674 30.0959 105.263 38.5269 112.119 38.5269H114.693C114.693 38.5269 111.607 36.3639 111.607 30.0519C111.607 25.9349 111.562 25.7119 111.562 25.7119H113.788V21.4269H111.563L111.608 13.7559L105.669 17.8269Z" fill="#EF6C00"></path> <path d="M58.4827 19.0742C58.8943 19.0743 59.3019 18.9933 59.6823 18.8359C60.0626 18.6784 60.4083 18.4476 60.6994 18.1566C60.9905 17.8655 61.2214 17.52 61.379 17.1397C61.5366 16.7594 61.6177 16.3518 61.6177 15.9402C61.6177 15.5285 61.5366 15.1209 61.379 14.7406C61.2214 14.3603 60.9905 14.0148 60.6994 13.7237C60.4083 13.4327 60.0626 13.2019 59.6823 13.0444C59.3019 12.887 58.8943 12.806 58.4827 12.8062C58.071 12.806 57.6634 12.887 57.283 13.0444C56.9027 13.2019 56.5571 13.4327 56.2659 13.7237C55.9748 14.0148 55.7439 14.3603 55.5863 14.7406C55.4288 15.1209 55.3477 15.5285 55.3477 15.9402C55.3477 16.3518 55.4288 16.7594 55.5863 17.1397C55.7439 17.52 55.9748 17.8655 56.2659 18.1566C56.5571 18.4476 56.9027 18.6784 57.283 18.8359C57.6634 18.9933 58.071 19.0743 58.4827 19.0742" fill="#EF6C00"></path> <path d="M77.7205 33.106C77.7205 29.631 75.4025 28.092 72.3375 27.425C70.6535 27.059 68.7905 26.751 68.7905 25.898C68.7905 25.298 69.2905 24.845 70.4015 24.898C71.2908 24.9702 72.1241 25.3608 72.7485 25.998C72.7485 25.956 76.5845 23.521 76.5845 23.521C76.1755 23.197 74.7635 20.874 70.0245 20.874C66.6345 20.874 63.4105 22.828 63.5665 26.543C63.7105 30.002 66.2845 31.143 69.4665 31.726C71.1035 32.017 72.3345 32.092 72.2905 32.973C72.2525 33.744 71.1515 34.287 69.2245 33.762C68.332 33.4717 67.5626 32.8903 67.0395 32.111L63.1855 34.649C63.8698 35.9268 64.8952 36.9896 66.1477 37.7192C67.4002 38.4487 68.8305 38.8163 70.2795 38.781C72.5635 38.781 77.7205 37.986 77.7205 33.106Z" fill="#EF6C00"></path> <path d="M25.168 68.3578C25.1681 68.3769 25.172 68.3958 25.1795 68.4134C25.187 68.431 25.1979 68.447 25.2115 68.4604C25.2252 68.4737 25.2414 68.4843 25.2591 68.4914C25.2769 68.4985 25.2959 68.502 25.315 68.5018H27.231C27.438 68.5181 27.6462 68.493 27.8435 68.4279C28.0407 68.3629 28.223 68.2592 28.3797 68.1229C28.5363 67.9866 28.6643 67.8204 28.756 67.6341C28.8478 67.4478 28.9015 67.2451 28.914 67.0378C28.8831 66.7535 28.7682 66.4849 28.5838 66.2663C28.3994 66.0477 28.154 65.8891 27.879 65.8108C28.1206 65.7066 28.3308 65.541 28.4887 65.3305C28.6465 65.12 28.7466 64.8719 28.779 64.6108C28.7446 64.2045 28.5506 63.8284 28.2395 63.5648C27.9283 63.3013 27.5254 63.1718 27.119 63.2048H25.315C25.2955 63.2046 25.2761 63.2084 25.2581 63.2159C25.2401 63.2233 25.2237 63.2343 25.21 63.2482C25.1963 63.2621 25.1856 63.2786 25.1783 63.2967C25.1711 63.3149 25.1676 63.3343 25.168 63.3538V68.3578ZM26.373 65.3578V64.2988H26.973C27.0426 64.2958 27.112 64.3069 27.1772 64.3313C27.2424 64.3558 27.302 64.3931 27.3525 64.441C27.403 64.489 27.4433 64.5466 27.471 64.6105C27.4988 64.6743 27.5134 64.7431 27.514 64.8128C27.514 64.9565 27.4571 65.0944 27.3557 65.1964C27.2544 65.2983 27.1168 65.356 26.973 65.3568L26.373 65.3578ZM26.373 67.4218V66.3378H26.998C27.1505 66.3313 27.3 66.382 27.4172 66.4798C27.5344 66.5776 27.611 66.7156 27.632 66.8668C27.6312 67.0136 27.5722 67.1542 27.468 67.2576C27.3638 67.3611 27.2228 67.419 27.076 67.4188L26.373 67.4218ZM30.822 68.3578C30.8221 68.3768 30.826 68.3956 30.8334 68.4132C30.8408 68.4307 30.8516 68.4466 30.8652 68.46C30.8787 68.4734 30.8948 68.4839 30.9124 68.4911C30.9301 68.4983 30.949 68.5019 30.968 68.5018H34.168C34.2063 68.5018 34.243 68.4866 34.2702 68.4597C34.2973 68.4327 34.3127 68.396 34.313 68.3578V67.5378C34.3133 67.5186 34.3097 67.4995 34.3025 67.4817C34.2954 67.4638 34.2847 67.4476 34.2712 67.4339C34.2578 67.4203 34.2417 67.4094 34.224 67.402C34.2062 67.3946 34.1872 67.3908 34.168 67.3908H32.027V66.3698H33.788C33.8071 66.37 33.8261 66.3665 33.8439 66.3594C33.8616 66.3523 33.8778 66.3417 33.8915 66.3284C33.9051 66.315 33.916 66.299 33.9235 66.2814C33.931 66.2638 33.9349 66.2449 33.935 66.2258V65.4028C33.9335 65.3645 33.9174 65.3284 33.8901 65.3016C33.8628 65.2748 33.8262 65.2595 33.788 65.2588H32.027V64.3218H34.168C34.2065 64.322 34.2436 64.307 34.2712 64.2801C34.2987 64.2531 34.3145 64.2163 34.315 64.1778V63.3538C34.3145 63.3152 34.2987 63.2784 34.2712 63.2515C34.2436 63.2245 34.2065 63.2095 34.168 63.2098H30.968C30.949 63.2096 30.9301 63.2133 30.9124 63.2204C30.8948 63.2276 30.8787 63.2382 30.8652 63.2515C30.8516 63.2649 30.8408 63.2808 30.8334 63.2984C30.826 63.3159 30.8221 63.3347 30.822 63.3538V68.3578ZM36.275 68.3578C36.2751 68.3768 36.279 68.3956 36.2864 68.4132C36.2938 68.4307 36.3046 68.4466 36.3182 68.46C36.3317 68.4734 36.3478 68.4839 36.3654 68.4911C36.3831 68.4983 36.402 68.5019 36.421 68.5018H39.321C39.3401 68.502 39.3591 68.4985 39.3769 68.4914C39.3946 68.4843 39.4108 68.4737 39.4245 68.4604C39.4381 68.447 39.449 68.431 39.4565 68.4134C39.464 68.3958 39.4679 68.3769 39.468 68.3578V67.5378C39.4677 67.5187 39.4637 67.4999 39.4562 67.4824C39.4487 67.4649 39.4378 67.4491 39.4241 67.4358C39.4105 67.4225 39.3943 67.4121 39.3766 67.405C39.3589 67.398 39.34 67.3945 39.321 67.3948H37.487V63.3538C37.4855 63.3157 37.4696 63.2797 37.4424 63.2529C37.4153 63.2262 37.3791 63.2108 37.341 63.2098H36.421C36.402 63.2096 36.3831 63.2133 36.3654 63.2204C36.3478 63.2276 36.3317 63.2382 36.3182 63.2515C36.3046 63.2649 36.2938 63.2808 36.2864 63.2984C36.279 63.3159 36.2751 63.3347 36.275 63.3538V68.3578ZM41.149 68.3578C41.1491 68.3768 41.153 68.3956 41.1604 68.4132C41.1678 68.4307 41.1786 68.4466 41.1922 68.46C41.2057 68.4734 41.2218 68.4839 41.2394 68.4911C41.2571 68.4983 41.276 68.5019 41.295 68.5018H44.195C44.2141 68.502 44.2331 68.4985 44.2509 68.4914C44.2686 68.4843 44.2848 68.4737 44.2985 68.4604C44.3121 68.447 44.323 68.431 44.3305 68.4134C44.338 68.3958 44.3419 68.3769 44.342 68.3578V67.5378C44.3417 67.5187 44.3377 67.4999 44.3302 67.4824C44.3227 67.4649 44.3118 67.4491 44.2981 67.4358C44.2845 67.4225 44.2683 67.4121 44.2506 67.405C44.2329 67.398 44.214 67.3945 44.195 67.3948H42.361V63.3538C42.3595 63.3157 42.3436 63.2797 42.3165 63.2529C42.2893 63.2262 42.2531 63.2108 42.215 63.2098H41.295C41.276 63.2096 41.2571 63.2133 41.2394 63.2204C41.2218 63.2276 41.2057 63.2382 41.1922 63.2515C41.1786 63.2649 41.1678 63.2808 41.1604 63.2984C41.153 63.3159 41.1491 63.3347 41.149 63.3538V68.3578ZM45.883 66.4758C45.8977 67.0444 46.1365 67.5843 46.5475 67.9776C46.9585 68.371 47.5082 68.586 48.077 68.5758C48.6478 68.5879 49.2002 68.374 49.6139 67.9806C50.0277 67.5873 50.2692 67.0464 50.286 66.4758V63.3538C50.2845 63.3157 50.2686 63.2797 50.2414 63.2529C50.2143 63.2262 50.1781 63.2108 50.14 63.2098H49.189C49.17 63.2096 49.1511 63.2133 49.1334 63.2204C49.1158 63.2276 49.0997 63.2382 49.0862 63.2515C49.0726 63.2649 49.0618 63.2808 49.0544 63.2984C49.047 63.3159 49.0431 63.3347 49.043 63.3538V66.4158C49.0442 66.5423 49.02 66.6678 48.9717 66.7848C48.9234 66.9018 48.8521 67.0079 48.762 67.0967C48.6718 67.1855 48.5647 67.2553 48.447 67.3019C48.3294 67.3485 48.2035 67.3709 48.077 67.3678C47.9515 67.3699 47.8268 67.3468 47.7104 67.2997C47.5941 67.2526 47.4884 67.1825 47.3997 67.0936C47.311 67.0048 47.2412 66.899 47.1943 66.7825C47.1475 66.666 47.1246 66.5413 47.127 66.4158V63.3538C47.1265 63.3152 47.1107 63.2784 47.0832 63.2515C47.0556 63.2245 47.0185 63.2095 46.98 63.2098H46.03C45.9918 63.2107 45.9554 63.2261 45.9282 63.2528C45.9009 63.2796 45.8848 63.3156 45.883 63.3538V66.4758ZM52.457 68.3578C52.4585 68.3958 52.4744 68.4319 52.5015 68.4586C52.5287 68.4854 52.5649 68.5008 52.603 68.5018H53.523C53.5613 68.5018 53.598 68.4866 53.6252 68.4597C53.6523 68.4327 53.6677 68.396 53.668 68.3578V65.5378H53.676L56.727 68.5378C56.7567 68.5584 56.7911 68.5715 56.827 68.5758H56.951C56.9887 68.5766 57.0252 68.5626 57.0527 68.5368C57.0802 68.511 57.0964 68.4754 57.098 68.4378V63.3538C57.0962 63.3156 57.0801 63.2796 57.0528 63.2528C57.0256 63.2261 56.9892 63.2107 56.951 63.2098H56.025C55.9864 63.2095 55.9494 63.2245 55.9218 63.2515C55.8943 63.2784 55.8785 63.3152 55.878 63.3538V66.0378H55.868L52.789 63.1378H52.595C52.5576 63.1369 52.5214 63.1507 52.494 63.176C52.4666 63.2014 52.4501 63.2365 52.448 63.2738L52.457 68.3578ZM58.957 65.8628C58.9587 66.2239 59.032 66.581 59.1728 66.9135C59.3136 67.2461 59.5191 67.5473 59.7772 67.7998C60.0354 68.0523 60.3411 68.251 60.6767 68.3843C61.0122 68.5177 61.371 68.5831 61.732 68.5768C62.0932 68.583 62.4521 68.5175 62.7879 68.3842C63.1237 68.2508 63.4297 68.0522 63.6882 67.7998C63.9468 67.5474 64.1527 67.2462 64.2941 66.9138C64.4355 66.5813 64.5095 66.2241 64.512 65.8628C64.5093 65.501 64.4351 65.1434 64.2937 64.8105C64.1524 64.4775 63.9466 64.1757 63.6883 63.9225C63.43 63.6693 63.1242 63.4696 62.7884 63.335C62.4527 63.2003 62.0937 63.1333 61.732 63.1378C61.3704 63.1333 61.0115 63.2004 60.6759 63.3354C60.3404 63.4703 60.0349 63.6704 59.7771 63.924C59.5193 64.1776 59.3143 64.4798 59.1739 64.8131C59.0335 65.1463 58.9604 65.5041 58.959 65.8658M60.195 65.8658C60.2 65.4613 60.3641 65.0752 60.6518 64.7908C60.9395 64.5065 61.3275 64.347 61.732 64.3468C62.1377 64.3454 62.5275 64.5042 62.8168 64.7886C63.1061 65.073 63.2715 65.4601 63.277 65.8658C63.2686 66.2688 63.1017 66.6522 62.8125 66.933C62.5233 67.2138 62.1351 67.3693 61.732 67.3658C61.3302 67.3677 60.9437 67.2114 60.6561 66.9308C60.3685 66.6501 60.2029 66.2675 60.195 65.8658ZM68.854 68.3578C68.8555 68.396 68.8716 68.4322 68.8989 68.4589C68.9262 68.4857 68.9628 68.501 69.001 68.5018H69.927C69.9652 68.501 70.0018 68.4857 70.0291 68.4589C70.0564 68.4322 70.0725 68.396 70.074 68.3578V63.3578C70.0722 63.3196 70.0561 63.2836 70.0288 63.2568C70.0016 63.2301 69.9652 63.2147 69.927 63.2138H69.001C68.9628 63.2147 68.9264 63.2301 68.8992 63.2568C68.8719 63.2836 68.8558 63.3196 68.854 63.3578V68.3578ZM73.025 68.3578C73.0265 68.3953 73.042 68.431 73.0685 68.4576C73.0949 68.4843 73.1305 68.5 73.168 68.5018H74.095C74.1332 68.5008 74.1696 68.4854 74.1968 68.4587C74.2241 68.432 74.2402 68.3959 74.242 68.3578V64.3218H75.342C75.3805 64.322 75.4176 64.307 75.4452 64.2801C75.4727 64.2531 75.4885 64.2163 75.489 64.1778V63.3538C75.4885 63.3152 75.4727 63.2784 75.4452 63.2515C75.4176 63.2245 75.3805 63.2095 75.342 63.2098H71.912C71.8734 63.2095 71.8364 63.2245 71.8088 63.2515C71.7813 63.2784 71.7655 63.3152 71.765 63.3538V64.1778C71.7655 64.2163 71.7813 64.2531 71.8088 64.2801C71.8364 64.307 71.8734 64.322 71.912 64.3218H73.017L73.025 68.3578ZM76.354 68.5018H77.204C77.2634 68.5041 77.322 68.4879 77.3718 68.4555C77.4216 68.4231 77.4601 68.376 77.482 68.3208L77.76 67.7158H79.86L80.138 68.3158C80.207 68.4598 80.269 68.5058 80.408 68.5058H81.268C81.2927 68.5087 81.3177 68.5047 81.3403 68.4943C81.3629 68.4838 81.3821 68.4673 81.3958 68.4465C81.4095 68.4258 81.4171 68.4016 81.4179 68.3767C81.4186 68.3519 81.4124 68.3273 81.4 68.3058L78.98 63.2168C78.9671 63.193 78.9482 63.1729 78.9253 63.1585C78.9023 63.1442 78.8761 63.136 78.849 63.1348H78.768C78.7409 63.136 78.7147 63.1442 78.6917 63.1585C78.6688 63.1729 78.6499 63.193 78.637 63.2168L76.223 68.3048C76.2106 68.3262 76.2045 68.3507 76.2052 68.3755C76.2059 68.4002 76.2135 68.4243 76.2271 68.445C76.2406 68.4657 76.2597 68.4823 76.2821 68.4928C76.3045 68.5034 76.3294 68.5075 76.354 68.5048M78.223 66.6908L78.802 65.4378H78.81L79.397 66.6848L78.223 66.6908ZM82.958 68.3578C82.9581 68.3768 82.962 68.3956 82.9694 68.4132C82.9768 68.4307 82.9876 68.4466 83.0012 68.46C83.0147 68.4734 83.0308 68.4839 83.0484 68.4911C83.0661 68.4983 83.085 68.5019 83.104 68.5018H86.004C86.0231 68.502 86.0421 68.4985 86.0599 68.4914C86.0776 68.4843 86.0938 68.4737 86.1075 68.4604C86.1211 68.447 86.132 68.431 86.1395 68.4134C86.147 68.3958 86.1509 68.3769 86.151 68.3578V67.5378C86.1507 67.5187 86.1467 67.4999 86.1392 67.4824C86.1317 67.4649 86.1208 67.4491 86.1071 67.4358C86.0935 67.4225 86.0773 67.4121 86.0596 67.405C86.0419 67.398 86.023 67.3945 86.004 67.3948H84.168V63.3538C84.1665 63.3157 84.1506 63.2797 84.1235 63.2529C84.0963 63.2262 84.0601 63.2108 84.022 63.2098H83.102C83.083 63.2096 83.0641 63.2133 83.0464 63.2204C83.0288 63.2276 83.0127 63.2382 82.9992 63.2515C82.9856 63.2649 82.9748 63.2808 82.9674 63.2984C82.96 63.3159 82.9561 63.3347 82.956 63.3538L82.958 68.3578ZM87.831 68.3578C87.8328 68.3959 87.8489 68.432 87.8762 68.4587C87.9034 68.4854 87.9398 68.5008 87.978 68.5018H88.905C88.9432 68.5008 88.9795 68.4854 89.0068 68.4587C89.0341 68.432 89.0502 68.3959 89.052 68.3578V63.3578C89.0502 63.3196 89.0341 63.2836 89.0068 63.2568C88.9795 63.2301 88.9432 63.2147 88.905 63.2138H87.978C87.9398 63.2147 87.9034 63.2301 87.8762 63.2568C87.8489 63.2836 87.8328 63.3196 87.831 63.3578V68.3578ZM90.743 68.5018H91.593C91.652 68.5034 91.71 68.4868 91.7592 68.4542C91.8085 68.4216 91.8464 68.3747 91.868 68.3198L92.146 67.7148H94.246L94.524 68.3148C94.593 68.4588 94.656 68.5048 94.794 68.5048H95.651C95.6757 68.5077 95.7007 68.5037 95.7233 68.4933C95.7459 68.4828 95.7651 68.4663 95.7788 68.4455C95.7925 68.4248 95.8001 68.4006 95.8009 68.3757C95.8016 68.3509 95.7954 68.3263 95.783 68.3048L93.368 63.2168C93.3548 63.1937 93.3359 63.1743 93.3132 63.1605C93.2905 63.1467 93.2646 63.1388 93.238 63.1378H93.16C93.133 63.1391 93.1067 63.1473 93.0838 63.1617C93.0608 63.176 93.042 63.196 93.029 63.2198L90.612 68.3048C90.5996 68.3262 90.5935 68.3507 90.5942 68.3755C90.5949 68.4002 90.6025 68.4243 90.6161 68.445C90.6296 68.4657 90.6487 68.4823 90.6711 68.4928C90.6935 68.5034 90.7184 68.5075 90.743 68.5048M92.612 66.6908L93.191 65.4378H93.199L93.786 66.6848L92.612 66.6908ZM100.182 68.3608C100.182 68.3799 100.186 68.3988 100.194 68.4164C100.201 68.434 100.212 68.45 100.226 68.4634C100.239 68.4767 100.255 68.4873 100.273 68.4944C100.291 68.5015 100.31 68.505 100.329 68.5048H101.186C101.223 68.5035 101.258 68.4877 101.284 68.4608C101.31 68.4339 101.324 68.398 101.324 68.3608V63.5048C101.324 63.4676 101.31 63.4318 101.284 63.405C101.258 63.3782 101.223 63.3623 101.186 63.3608H100.475L99.347 64.2228C99.321 64.2555 99.305 64.2951 99.301 64.3368V64.8128C99.3007 64.85 99.315 64.8859 99.3408 64.9128C99.3665 64.9397 99.4018 64.9555 99.439 64.9568H100.181L100.182 68.3608ZM103.568 67.9188L103.792 68.5008C103.799 68.525 103.811 68.5476 103.827 68.567C103.843 68.5865 103.863 68.6024 103.886 68.6138C103.908 68.6251 103.933 68.6317 103.958 68.6331C103.983 68.6345 104.008 68.6306 104.032 68.6218C104.767 68.4233 105.418 67.9918 105.886 67.3921C106.355 66.7924 106.617 66.0568 106.632 65.2958C106.663 65.0345 106.637 64.7697 106.557 64.519C106.477 64.2684 106.345 64.0379 106.168 63.8429C105.991 63.6479 105.775 63.493 105.534 63.3886C105.292 63.2842 105.031 63.2328 104.768 63.2378C104.305 63.2353 103.859 63.4157 103.528 63.7398C103.197 64.0639 103.007 64.5055 102.999 64.9688C102.984 65.1793 103.013 65.3906 103.084 65.5894C103.155 65.7881 103.266 65.9702 103.41 66.1241C103.555 66.2781 103.729 66.4005 103.923 66.4839C104.117 66.5673 104.326 66.6098 104.537 66.6088C104.788 66.5995 105.036 66.5485 105.271 66.4578C105.109 67.2358 104.082 67.5838 103.718 67.6978C103.564 67.7428 103.54 67.8258 103.571 67.9168M104.785 65.7378C104.59 65.7383 104.402 65.6615 104.263 65.5241C104.124 65.3868 104.046 65.2001 104.044 65.0048C104.047 64.8106 104.127 64.6255 104.265 64.4896C104.404 64.3537 104.591 64.278 104.785 64.2788C104.979 64.2782 105.166 64.354 105.304 64.4899C105.443 64.6257 105.523 64.8107 105.526 65.0048C105.524 65.2 105.445 65.3866 105.306 65.5239C105.168 65.6612 104.98 65.738 104.785 65.7378ZM108.762 68.3578C108.762 68.3769 108.766 68.3958 108.774 68.4134C108.781 68.431 108.792 68.447 108.806 68.4604C108.819 68.4737 108.835 68.4843 108.853 68.4914C108.871 68.4985 108.89 68.502 108.909 68.5018H109.768C109.805 68.5007 109.841 68.4851 109.867 68.4581C109.893 68.4312 109.907 68.3952 109.907 68.3578V63.5048C109.907 63.4674 109.893 63.4315 109.867 63.4047C109.841 63.3778 109.805 63.3621 109.768 63.3608H109.058L107.93 64.2228C107.904 64.2553 107.888 64.295 107.884 64.3368V64.8128C107.884 64.8502 107.898 64.8862 107.924 64.9131C107.95 64.9401 107.986 64.9557 108.023 64.9568H108.764L108.762 68.3578ZM112.153 67.9188L112.377 68.5008C112.384 68.525 112.396 68.5476 112.412 68.567C112.428 68.5865 112.448 68.6024 112.471 68.6138C112.493 68.6251 112.518 68.6317 112.543 68.6331C112.568 68.6345 112.593 68.6306 112.617 68.6218C113.352 68.4231 114.002 67.9916 114.471 67.392C114.94 66.7923 115.202 66.0568 115.217 65.2958C115.248 65.0342 115.222 64.7691 115.142 64.5183C115.062 64.2675 114.929 64.0368 114.752 63.8417C114.575 63.6467 114.358 63.4919 114.117 63.3877C113.875 63.2835 113.613 63.2324 113.35 63.2378C112.887 63.2351 112.441 63.4154 112.11 63.7395C111.778 64.0636 111.588 64.5054 111.581 64.9688C111.566 65.1792 111.595 65.3905 111.666 65.5893C111.736 65.7881 111.847 65.9701 111.992 66.1241C112.136 66.278 112.31 66.4005 112.504 66.4839C112.698 66.5673 112.907 66.6098 113.118 66.6088C113.37 66.5995 113.618 66.5485 113.853 66.4578C113.69 67.2358 112.663 67.5838 112.3 67.6978C112.146 67.7428 112.122 67.8258 112.153 67.9168M113.368 65.7378C113.173 65.7383 112.985 65.6615 112.846 65.5242C112.707 65.3869 112.628 65.2002 112.626 65.0048C112.629 64.8105 112.709 64.6254 112.848 64.4895C112.987 64.3537 113.174 64.2779 113.368 64.2788C113.562 64.2782 113.749 64.354 113.887 64.4899C114.026 64.6257 114.106 64.8107 114.109 65.0048C114.107 65.2 114.028 65.3866 113.889 65.5239C113.751 65.6612 113.563 65.738 113.368 65.7378" fill="#EF6C00"></path> </g> <defs> <clipPath id="clip0_3_57"> <rect width="139.943" height="68.631" fill="white"></rect> </clipPath> </defs> </svg> 